<?xml version="1.0" standalone="no"?>
<!DOCTYPE svg PUBLIC "-//W3C//DTD SVG 20010904//EN"
 "http://www.w3.org/TR/2001/REC-SVG-20010904/DTD/svg10.dtd">
<svg version="1.0" xmlns="http://www.w3.org/2000/svg"
 width="400.000000pt" height="400.000000pt" viewBox="0 0 400.000000 400.000000"
 preserveAspectRatio="xMidYMid meet">
<metadata>
Created by potrace 1.11, written by Peter Selinger 2001-2013
</metadata>
<g transform="translate(0.000000,400.000000) scale(0.100000,-0.100000)"
fill="#000000" stroke="none">
<path d="M1920 3934 c-19 -2 -80 -8 -135 -14 -95 -10 -202 -30 -290 -52 -66
-17 -222 -71 -253 -87 -9 -5 -51 -26 -92 -46 -41 -19 -97 -49 -125 -65 -27
-16 -59 -34 -70 -39 -11 -5 -29 -17 -40 -28 -11 -10 -33 -27 -50 -37 -83 -54
-262 -220 -344 -320 -66 -82 -151 -194 -151 -201 0 -3 -17 -33 -37 -67 -21
-35 -53 -94 -71 -133 -19 -38 -38 -78 -43 -87 -17 -33 -60 -158 -82 -238 -39
-145 -43 -163 -67 -370 -5 -47 -10 -121 -10 -165 0 -132 38 -390 77 -513 7
-23 13 -51 13 -62 0 -10 5 -22 10 -25 6 -3 10 -16 10 -29 0 -12 7 -31 15 -42
8 -10 15 -27 15 -36 0 -14 16 -52 42 -98 4 -8 11 -22 14 -30 3 -8 10 -23 15
-33 6 -10 20 -37 32 -60 11 -23 23 -44 26 -47 4 -3 15 -21 25 -40 43 -78 191
-265 278 -352 89 -87 274 -233 348 -274 19 -10 37 -22 40 -25 3 -3 34 -20 70
-38 36 -18 72 -37 80 -42 8 -5 22 -12 30 -15 8 -3 29 -11 45 -18 28 -12 91
-38 140 -56 11 -4 40 -13 65 -19 115 -30 170 -42 235 -51 39 -5 99 -14 135
-20 84 -12 286 -12 370 0 36 6 97 15 135 20 65 9 120 21 235 51 25 6 54 15 65
19 91 34 169 67 195 82 8 4 22 11 30 14 27 11 135 67 140 73 3 3 21 15 40 25
76 42 262 189 350 276 87 88 234 274 276 350 10 19 21 37 25 40 3 3 15 24 26
47 12 23 26 50 32 60 5 10 12 25 15 33 3 8 10 22 14 30 26 46 42 84 42 98 0 9
7 26 15 36 8 11 15 29 15 41 0 12 3 25 7 29 5 4 14 31 21 59 50 205 52 212 73
428 10 100 10 151 0 250 -21 218 -26 243 -68 399 -22 80 -65 205 -82 238 -5 9
-24 49 -43 87 -18 39 -50 98 -70 133 -21 34 -38 64 -38 67 0 7 -85 119 -151
201 -82 100 -261 266 -344 320 -16 10 -39 27 -50 37 -11 11 -29 23 -40 28 -11
5 -42 23 -70 39 -27 16 -84 46 -125 65 -41 20 -83 41 -92 46 -31 16 -187 70
-253 87 -177 45 -477 79 -595 66z m-933 -1226 c26 -40 52 -81 58 -90 8 -15 77
-123 135 -214 8 -12 65 -102 125 -199 61 -97 117 -187 125 -200 39 -61 167
-272 173 -285 4 -8 21 -37 37 -65 16 -27 48 -87 70 -132 22 -45 45 -85 50 -88
6 -3 10 -17 10 -31 0 -13 5 -24 11 -24 7 0 9 19 5 58 -4 31 -9 346 -12 700
l-6 642 95 0 c67 0 98 -4 106 -14 8 -10 10 -239 9 -847 l-3 -834 -111 -3 -111
-3 -19 28 c-10 15 -23 36 -29 45 -12 20 -194 311 -215 344 -8 13 -53 85 -100
160 -47 75 -92 147 -100 160 -56 87 -202 327 -223 364 -13 25 -39 72 -57 105
-41 74 -76 144 -84 168 -21 64 -24 -36 -18 -651 3 -368 2 -681 -2 -696 l-7
-27 -97 3 -97 3 -3 835 c-1 459 0 841 3 848 3 9 37 12 120 12 l115 0 47 -72z
m1465 55 c17 -21 22 -31 224 -435 85 -170 154 -311 154 -315 1 -31 50 -39 50
-9 0 12 86 184 225 451 43 83 96 183 117 224 21 41 44 81 50 88 8 10 38 13
122 11 131 -4 131 -4 68 -109 -21 -35 -74 -125 -117 -199 -43 -74 -86 -148
-97 -165 -10 -16 -21 -37 -25 -45 -4 -8 -30 -53 -58 -100 -28 -47 -54 -92 -58
-100 -4 -8 -11 -22 -17 -30 -28 -43 -90 -151 -90 -157 0 -3 -8 -15 -17 -26
-16 -17 -18 -55 -23 -391 l-5 -371 -110 0 -110 0 -5 365 -5 365 -29 50 c-16
28 -41 73 -56 100 -15 28 -48 88 -74 135 -25 47 -50 92 -55 100 -6 8 -26 46
-47 84 -20 38 -44 83 -54 100 -11 17 -35 63 -56 101 -20 39 -48 87 -61 107
-12 21 -23 41 -23 44 0 4 -13 29 -30 56 -52 84 -49 88 83 88 96 0 116 -3 129
-17z"/>
</g>
</svg>
